<svg width="20" height="20" viewBox="0 0 20 20" fill="none" xmlns="http://www.w3.org/2000/svg">
<g clip-path="url(#clip0_1271_53)">
<path d="M7.5 10.8333C7.5 10.6123 7.5878 10.4004 7.74408 10.2441C7.90036 10.0878 8.11232 10 8.33333 10H11.6667C11.8877 10 12.0996 10.0878 12.2559 10.2441C12.4122 10.4004 12.5 10.6123 12.5 10.8333V15.8333C12.5 16.0543 12.4122 16.2663 12.2559 16.4226C12.0996 16.5789 11.8877 16.6667 11.6667 16.6667H8.33333C8.11232 16.6667 7.90036 16.5789 7.74408 16.4226C7.5878 16.2663 7.5 16.0543 7.5 15.8333V10.8333Z" stroke="#808999" stroke-width="1.5" stroke-linecap="round" stroke-linejoin="round"/>
<path d="M2.5 7.50002C2.5 7.27901 2.5878 7.06705 2.74408 6.91076C2.90036 6.75448 3.11232 6.66669 3.33333 6.66669H6.66667C6.88768 6.66669 7.09964 6.75448 7.25592 6.91076C7.4122 7.06705 7.5 7.27901 7.5 7.50002V15.8334C7.5 16.0544 7.4122 16.2663 7.25592 16.4226C7.09964 16.5789 6.88768 16.6667 6.66667 16.6667H3.33333C3.11232 16.6667 2.90036 16.5789 2.74408 16.4226C2.5878 16.2663 2.5 16.0544 2.5 15.8334V7.50002Z" stroke="#808999" stroke-width="1.5" stroke-linecap="round" stroke-linejoin="round"/>
<path d="M12.5 4.16665C12.5 3.94563 12.5878 3.73367 12.7441 3.57739C12.9004 3.42111 13.1123 3.33331 13.3333 3.33331H16.6667C16.8877 3.33331 17.0996 3.42111 17.2559 3.57739C17.4122 3.73367 17.5 3.94563 17.5 4.16665V15.8333C17.5 16.0543 17.4122 16.2663 17.2559 16.4226C17.0996 16.5788 16.8877 16.6666 16.6667 16.6666H13.3333C13.1123 16.6666 12.9004 16.5788 12.7441 16.4226C12.5878 16.2663 12.5 16.0543 12.5 15.8333V4.16665Z" stroke="#808999" stroke-width="1.5" stroke-linecap="round" stroke-linejoin="round"/>
<path d="M3.3335 16.6667H15.0002" stroke="#808999" stroke-width="1.5" stroke-linecap="round" stroke-linejoin="round"/>
</g>
<defs>
<clipPath id="clip0_1271_53">
<rect width="20" height="20" fill="white"/>
</clipPath>
</defs>
</svg>
