<svg width="20" height="20" viewBox="0 0 20 20" fill="none" xmlns="http://www.w3.org/2000/svg">
<g clip-path="url(#clip0_1270_21)">
<path d="M8.3329 17.3138C7.60758 17.1493 6.91097 16.8771 6.26624 16.5063" stroke="#808999" stroke-width="1.5" stroke-linecap="round" stroke-linejoin="round"/>
<path d="M11.6666 2.68555C13.3234 3.06394 14.8027 3.99362 15.8622 5.32239C16.9217 6.65115 17.4987 8.30026 17.4987 9.99971C17.4987 11.6992 16.9217 13.3483 15.8622 14.677C14.8027 16.0058 13.3234 16.9355 11.6666 17.3139" stroke="#808999" stroke-width="1.5" stroke-linecap="round" stroke-linejoin="round"/>
<path d="M3.81547 14.2441C3.36089 13.5837 3.01564 12.8543 2.79297 12.0841" stroke="#808999" stroke-width="1.5" stroke-linecap="round" stroke-linejoin="round"/>
<path d="M2.60413 8.74957C2.73746 7.9579 2.99413 7.2079 3.35413 6.5204L3.49496 6.26624" stroke="#808999" stroke-width="1.5" stroke-linecap="round" stroke-linejoin="round"/>
<path d="M5.75525 3.81555C6.53496 3.2788 7.40968 2.89531 8.33275 2.68555" stroke="#808999" stroke-width="1.5" stroke-linecap="round" stroke-linejoin="round"/>
</g>
<defs>
<clipPath id="clip0_1270_21">
<rect width="20" height="20" fill="white"/>
</clipPath>
</defs>
</svg>
