<svg width="20" height="20" viewBox="0 0 20 20" fill="none" xmlns="http://www.w3.org/2000/svg">
<g clip-path="url(#clip0_1270_28)">
<path d="M4.1665 5.83333C4.1665 6.71739 4.51769 7.56524 5.14281 8.19036C5.76794 8.81548 6.61578 9.16667 7.49984 9.16667C8.38389 9.16667 9.23174 8.81548 9.85686 8.19036C10.482 7.56524 10.8332 6.71739 10.8332 5.83333C10.8332 4.94928 10.482 4.10143 9.85686 3.47631C9.23174 2.85119 8.38389 2.5 7.49984 2.5C6.61578 2.5 5.76794 2.85119 5.14281 3.47631C4.51769 4.10143 4.1665 4.94928 4.1665 5.83333Z" stroke="#808999" stroke-width="1.5" stroke-linecap="round" stroke-linejoin="round"/>
<path d="M2.5 17.5V15.8333C2.5 14.9493 2.85119 14.1014 3.47631 13.4763C4.10143 12.8512 4.94928 12.5 5.83333 12.5H9.16667C10.0507 12.5 10.8986 12.8512 11.5237 13.4763C12.1488 14.1014 12.5 14.9493 12.5 15.8333V17.5" stroke="#808999" stroke-width="1.5" stroke-linecap="round" stroke-linejoin="round"/>
<path d="M13.3335 2.60913C14.0505 2.79272 14.686 3.20971 15.1399 3.79439C15.5937 4.37906 15.84 5.09816 15.84 5.8383C15.84 6.57844 15.5937 7.29753 15.1399 7.88221C14.686 8.46688 14.0505 8.88388 13.3335 9.06746" stroke="#808999" stroke-width="1.5" stroke-linecap="round" stroke-linejoin="round"/>
<path d="M17.5 17.5002V15.8336C17.4958 15.0979 17.2483 14.3842 16.7961 13.8039C16.3439 13.2236 15.7124 12.8092 15 12.6252" stroke="#808999" stroke-width="1.5" stroke-linecap="round" stroke-linejoin="round"/>
</g>
<defs>
<clipPath id="clip0_1270_28">
<rect width="20" height="20" fill="white"/>
</clipPath>
</defs>
</svg>
